# xmcd
#
# Track frame offsets:
#  150
#  12636
#  30695
#  45387
#  61006
#  82231
#  99526
#  114237
#  128253
#  138940
#  153140
#
# Disc length: 2238 seconds
#
# Revision: 1
# Processed by: cddbd v1.5.1PL0 Copyright (c) Steve Scherf et al.
# Submitted via: Collectorz.com Music Collector 6.9
#
DISCID=7d08bc0b
DTITLE=bap kennedy - The Big Picture
DYEAR=2005
DGENRE=Folk-Rock
TTITLE0=Rock And Roll Heaven
TTITLE1=The Truth Is Painfull
TTITLE2=Moriarty's Blues
TTITLE3=Streetwise
TTITLE4=Too Old For Fairy Tales
TTITLE5=Milky Way
TTITLE6=Loverman
TTITLE7=Fireworks
TTITLE8=On The Mighty Ocean Alcohol
TTITLE9=The Sweet Smell Of Success
TTITLE10=The Beautiful Country
EXTD=
EXTT0=
EXTT1=
EXTT2=
EXTT3=
EXTT4=
EXTT5=
EXTT6=
EXTT7=
EXTT8=
EXTT9=
EXTT10=
PLAYORDER=
